<?xml version="1.0" encoding="utf-8"?>
<!-- Generator: Adobe Illustrator 23.0.2, SVG Export Plug-In . SVG Version: 6.00 Build 0)  -->
<svg version="1.1" id="Layer_1" xmlns="http://www.w3.org/2000/svg" xmlns:xlink="http://www.w3.org/1999/xlink" x="0px" y="0px"
	 viewBox="0 0 176 41.46" style="enable-background:new 0 0 176 41.46;" xml:space="preserve">
<style type="text/css">
	.st0{clip-path:url(#SVGID_2_);fill:#FFFFFF;}
	.st1{clip-path:url(#SVGID_2_);fill-rule:evenodd;clip-rule:evenodd;fill:#FFFFFF;}
</style>
<g>
	<defs>
		<rect id="SVGID_1_" x="0.01" y="0.01" width="174" height="40"/>
	</defs>
	<clipPath id="SVGID_2_">
		<use xlink:href="#SVGID_1_"  style="overflow:visible;"/>
	</clipPath>
	<path class="st0" d="M17.5,27.54c-0.36,0.03-0.84,0.03-1.29,0.03h-3.35v-5.45h3.21c0.45,0,0.89,0.03,1.37,0.08
		c1.4,0.14,2.49,0.89,2.49,2.68C19.94,26.51,18.85,27.43,17.5,27.54 M12.86,14.35h2.8c0.45,0,0.95,0.03,1.4,0.08
		c1.29,0.17,2.18,0.87,2.18,2.32c0,1.4-0.7,2.18-2.1,2.4c-0.45,0.06-0.89,0.08-1.37,0.08h-2.91V14.35z M20.27,20.22
		c1.93-0.67,2.99-1.98,2.99-3.97c0-2.6-1.73-4.42-4.86-4.81c-0.95-0.11-1.51-0.11-2.49-0.11h-6.9v19.29h7.02c1.09,0,1.7,0,2.68-0.11
		c2.57-0.36,5.28-2.07,5.28-5.65C23.99,22.37,22.76,20.86,20.27,20.22z"/>
	<path class="st0" d="M30.5,30.62V15.75h-3.86v14.87H30.5z M28.57,10.21c-1.26,0-2.12,0.84-2.12,2.04c0,1.23,0.87,2.04,2.12,2.04
		c1.26,0,2.12-0.81,2.12-2.04C30.7,11.05,29.83,10.21,28.57,10.21z"/>
	<path class="st0" d="M58.15,10.94c-3.69,0-6.9,2.1-6.9,5.65s2.49,4.92,6.43,5.87c2.85,0.67,3.86,1.62,3.86,3.24
		c0,1.48-1.4,2.43-3.16,2.43c-1.96,0-3.58-1.09-4-3.21h-3.94c0.36,4.05,3.38,6.09,8,6.09c3.8,0,7.13-2.07,7.13-5.7
		c0-3.1-1.9-5.06-6.15-6.04c-3.08-0.73-4.11-1.54-4.11-3.16c0-1.57,1.17-2.29,2.71-2.29c2.01,0,3.1,1.23,3.33,3.19h3.94
		C64.86,13.57,62.76,10.94,58.15,10.94"/>
	<path class="st0" d="M74.73,28.3c-2.32,0-3.72-1.93-3.72-5.12c0-3.22,1.4-5.12,3.72-5.12c2.32,0,3.72,1.9,3.72,5.12
		C78.44,26.37,77.05,28.3,74.73,28.3 M74.73,15.36c-4.95,0-7.72,3.3-7.72,7.83c0,4.5,2.77,7.83,7.72,7.83
		c4.95,0,7.72-3.33,7.72-7.83C82.44,18.66,79.67,15.36,74.73,15.36z"/>
	<path class="st0" d="M89.26,13.85c0.14-1.25,1.43-1.76,3.24-1.42V9.74c-0.5-0.11-1.09-0.2-1.71-0.2c-3.52,0-5.17,1.48-5.4,4
		c-0.06,0.5-0.06,1.2-0.06,1.71v0.61h-1.59v2.54h1.59v12.22h3.86V18.4h3.05v-2.54h-3.05v-0.72C89.21,14.75,89.21,14.24,89.26,13.85"
		/>
	<path class="st0" d="M99.02,18.4h3.07v-2.54h-3.07V12.2h-3.86v3.66h-2.18v2.54h2.18v7.32c0,0.84,0,1.48,0.06,2.15
		c0.17,2.1,1.2,3.05,4.08,3.05c0.87,0,1.68-0.06,2.54-0.2v-2.52c-2.15,0.17-2.68-0.17-2.8-1.62c-0.03-0.39-0.03-0.81-0.03-1.31V18.4
		z"/>
	<path class="st0" d="M114.76,20.41c2.32-0.61,3.58-2.21,3.58-4.44c0-2.82-2.21-5.03-6.4-5.03c-4.5,0-6.9,2.57-7.24,5.92l-0.03,0.28
		h3.83l0.03-0.28c0.2-1.82,1.26-3.04,2.99-3.04c1.71,0,2.74,1.03,2.74,2.6c0,1.81-1.34,2.96-3.38,3.04l-0.64,0.03v2.69h0.64
		c2.52,0.06,3.83,1.09,3.83,3.02c0,1.76-1.37,2.94-3.41,2.94c-1.96,0-3.3-1.2-3.58-3.16l-0.06-0.28h-3.86l0.03,0.28
		c0.42,4,3.13,6.04,7.49,6.04c4.33,0,7.46-2.32,7.46-5.95C118.78,22.54,117.36,21,114.76,20.41"/>
	<path class="st0" d="M128.96,28.13c-1.98,0-3.24-1.59-3.24-3.8c0-2.46,1.48-3.8,3.21-3.8c2.21,0,3.3,1.65,3.3,3.91
		C132.23,26.51,130.97,28.13,128.96,28.13 M129.97,17.65c-1.37,0-2.4,0.28-3.44,1.12l-0.98,1.76c0.17-4.75,1.54-6.71,3.75-6.71
		c1.54,0,2.43,0.81,2.85,2.54l0.06,0.28h3.91l-0.03-0.28c-0.39-3.33-2.71-5.42-6.54-5.42c-4.56,0-7.97,3.49-7.97,10.65
		c0,6.54,2.57,9.42,7.41,9.42c3.97,0,7.32-2.57,7.32-7.04C136.31,20.42,134.19,17.65,129.97,17.65z"/>
	<path class="st0" d="M146.43,28.13c-2.38,0-3.44-2.29-3.44-7.16c0-4.92,1.06-7.16,3.44-7.16c2.35,0,3.41,2.24,3.41,7.16
		C149.84,25.84,148.78,28.13,146.43,28.13 M146.43,10.94c-5.48,0-7.52,3.94-7.52,10.04c0,6.04,2.04,10.04,7.52,10.04
		c5.45,0,7.49-4,7.49-10.04C153.92,14.88,151.88,10.94,146.43,10.94z"/>
	<path class="st1" d="M160.73,10.15c1.4,0.09,2.63,0.91,3.27,2.17c0.46,0.92,0.54,2,0.21,2.98c-0.16,0.48-0.39,0.9-0.73,1.29
		c-0.1,0.12-0.32,0.34-0.44,0.45c-0.97,0.83-2.26,1.14-3.5,0.83c-1.02-0.25-1.91-0.92-2.44-1.83c-0.29-0.51-0.46-1.04-0.52-1.64
		c-0.01-0.13-0.01-0.53,0-0.66c0.06-0.6,0.23-1.14,0.52-1.64c0.53-0.91,1.42-1.58,2.44-1.83C159.93,10.16,160.34,10.12,160.73,10.15
		z M160.2,9.55c-0.35,0.02-0.72,0.09-1.05,0.19c-0.87,0.27-1.66,0.82-2.23,1.55c-0.49,0.63-0.8,1.38-0.91,2.17
		c-0.03,0.24-0.03,0.3-0.03,0.6c0,0.31,0.01,0.39,0.04,0.65c0.1,0.68,0.37,1.36,0.76,1.92c0.29,0.42,0.67,0.8,1.07,1.09
		c0.65,0.47,1.37,0.74,2.19,0.83c0.15,0.02,0.59,0.02,0.75,0.01c1.56-0.11,2.93-1,3.68-2.38c0.46-0.85,0.63-1.87,0.47-2.85
		c-0.19-1.19-0.85-2.25-1.84-2.96c-0.67-0.48-1.46-0.77-2.3-0.83C160.72,9.55,160.3,9.54,160.2,9.55z"/>
	<path class="st1" d="M160.41,10.22l-0.07,0v0.24v0.24h0.15h0.15v-0.24v-0.24h-0.07c-0.04,0-0.07,0-0.08,0
		C160.49,10.22,160.45,10.22,160.41,10.22z"/>
	<path class="st1" d="M158.6,10.72c-0.13,0.07-0.17,0.1-0.17,0.11c0,0.01,0.23,0.41,0.24,0.41c0,0,0.04-0.02,0.09-0.05
		c0.04-0.03,0.1-0.06,0.13-0.07c0.02-0.01,0.04-0.03,0.04-0.03c0-0.01-0.22-0.39-0.24-0.4C158.68,10.67,158.66,10.68,158.6,10.72z"
		/>
	<path class="st1" d="M162.28,10.7c-0.05,0.07-0.22,0.38-0.22,0.38c0,0,0.03,0.02,0.07,0.04c0.04,0.02,0.09,0.05,0.12,0.07
		c0.03,0.02,0.06,0.04,0.06,0.04c0.01,0,0.24-0.4,0.24-0.41c0-0.01-0.12-0.08-0.21-0.13l-0.04-0.02L162.28,10.7z"/>
	<path class="st1" d="M157.19,12.09c-0.07,0.11-0.11,0.19-0.1,0.2c0.01,0.01,0.4,0.23,0.41,0.23c0.01,0,0.15-0.26,0.15-0.26
		c0,0-0.08-0.05-0.19-0.1c-0.1-0.06-0.19-0.11-0.21-0.12l-0.02-0.01L157.19,12.09z"/>
	<path class="st1" d="M163.55,12.14c-0.11,0.06-0.21,0.12-0.21,0.12c0,0,0.01,0.03,0.03,0.07c0.02,0.03,0.05,0.09,0.07,0.13
		c0.02,0.04,0.04,0.07,0.04,0.07c0.01,0,0.4-0.22,0.41-0.23c0,0-0.01-0.03-0.03-0.07c-0.03-0.06-0.11-0.2-0.12-0.2
		C163.75,12.03,163.66,12.08,163.55,12.14z"/>
	<polygon class="st1" points="156.65,14.06 156.65,14.21 156.89,14.21 157.13,14.21 157.13,14.06 157.13,13.91 156.89,13.91 
		156.65,13.91 	"/>
	<polygon class="st1" points="163.85,14.06 163.85,14.21 164.09,14.21 164.33,14.21 164.33,14.06 164.33,13.91 164.09,13.91 
		163.85,13.91 	"/>
	<path class="st1" d="M157.29,15.71c-0.11,0.06-0.2,0.12-0.2,0.12c-0.01,0.01,0.04,0.1,0.1,0.2l0.04,0.06l0.02-0.01
		c0.01-0.01,0.11-0.06,0.21-0.12c0.1-0.06,0.18-0.1,0.19-0.1c0,0-0.15-0.26-0.15-0.26C157.49,15.6,157.4,15.65,157.29,15.71"/>
	<path class="st1" d="M163.44,15.66c-0.02,0.04-0.05,0.09-0.07,0.13c-0.02,0.03-0.04,0.06-0.04,0.06c0,0,0.08,0.05,0.18,0.1
		c0.1,0.05,0.19,0.11,0.21,0.12l0.03,0.02l0.04-0.07c0.07-0.12,0.1-0.19,0.1-0.19c-0.01-0.01-0.4-0.23-0.41-0.23
		C163.48,15.6,163.46,15.63,163.44,15.66z"/>
	<path class="st1" d="M158.55,17.09c-0.06,0.11-0.12,0.2-0.12,0.21c0,0.01,0.11,0.07,0.21,0.13l0.04,0.02l0.01-0.02
		c0.03-0.05,0.23-0.39,0.23-0.39c0,0-0.02-0.02-0.04-0.03c-0.02-0.01-0.08-0.05-0.13-0.07c-0.05-0.03-0.08-0.05-0.09-0.05
		C158.67,16.89,158.61,16.98,158.55,17.09z"/>
	<path class="st1" d="M162.28,16.9c-0.01,0.01-0.07,0.04-0.12,0.07c-0.05,0.03-0.1,0.06-0.1,0.06c0,0.01,0.18,0.31,0.22,0.38
		l0.02,0.03l0.04-0.02c0.09-0.05,0.21-0.12,0.21-0.13c0-0.01-0.24-0.41-0.24-0.41C162.31,16.89,162.29,16.89,162.28,16.9z"/>
	<polygon class="st1" points="160.34,17.66 160.34,17.9 160.49,17.9 160.64,17.9 160.64,17.66 160.64,17.42 160.49,17.42 
		160.34,17.42 	"/>
	<path class="st0" d="M160.85,13.95l2.16,0.04c0.02,0,0.02,0.02,0,0.02l-2.16,0.13c-0.04,0.17-0.19,0.29-0.37,0.29
		c-0.21,0-0.38-0.17-0.38-0.38c0-0.17,0.11-0.31,0.26-0.36l0.09-2.64c0-0.02,0.02-0.02,0.03,0l0.11,2.64
		C160.73,13.74,160.82,13.83,160.85,13.95"/>
	<path class="st1" d="M40.79,15.5c-4.32,0-7.83,3.51-7.83,7.83c0,0.96,0.17,1.9,0.51,2.79c0.04,0.12,0.15,0.19,0.27,0.19
		c0.03,0,0.07-0.01,0.1-0.02c0.15-0.06,0.22-0.22,0.17-0.37c-0.31-0.82-0.47-1.69-0.47-2.58c0-4,3.25-7.25,7.25-7.25
		s7.25,3.25,7.25,7.25c0,0.16,0.13,0.29,0.29,0.29c0.16,0,0.29-0.13,0.29-0.29C48.62,19.01,45.11,15.5,40.79,15.5"/>
	<path class="st1" d="M40.79,16.95c-1.74,0-3.54,0.84-4.82,2.25c-1.13,1.25-1.7,2.76-1.56,4.15l0.03,0.33
		c0.23,2.26,0.23,2.26-0.2,3.1c-0.03,0.06-0.06,0.12-0.09,0.19c-0.07,0.14-0.01,0.32,0.13,0.39c0.04,0.02,0.09,0.03,0.13,0.03
		c0.11,0,0.21-0.06,0.26-0.16c0.03-0.07,0.06-0.13,0.09-0.19c0.5-0.99,0.5-1.04,0.26-3.42l-0.03-0.33
		c-0.12-1.23,0.39-2.58,1.41-3.71c1.17-1.29,2.81-2.06,4.39-2.06c3.2,0,5.8,2.6,5.8,5.8v1.45c0,0.16,0.13,0.29,0.29,0.29
		c0.16,0,0.29-0.13,0.29-0.29v-1.45C47.18,19.81,44.31,16.95,40.79,16.95"/>
	<path class="st1" d="M42.6,18.75c-0.58-0.23-1.19-0.34-1.81-0.34c-1.32,0-2.56,0.51-3.48,1.42c-0.93,0.92-1.44,2.17-1.44,3.5
		c0,0.74,0.07,1.39,0.13,1.96c0.16,1.47,0.24,2.28-0.87,3.02c-0.13,0.09-0.17,0.27-0.08,0.4c0.06,0.08,0.15,0.13,0.24,0.13
		c0.06,0,0.11-0.02,0.16-0.05c1.4-0.93,1.28-2.1,1.12-3.56c-0.06-0.56-0.13-1.18-0.13-1.89c0-2.44,1.91-4.35,4.35-4.35
		c0.55,0,1.09,0.1,1.6,0.3c0.15,0.06,0.32-0.01,0.38-0.16C42.83,18.97,42.75,18.8,42.6,18.75"/>
	<path class="st1" d="M45.72,23.32c0-1.58-0.77-3.08-2.06-4c-0.13-0.09-0.31-0.06-0.4,0.07c-0.09,0.13-0.06,0.31,0.07,0.4
		c1.14,0.82,1.82,2.14,1.82,3.54c0,0.01,0,0.02,0,0.02c0,0.04,0.28,3.75-0.28,5.99c-0.04,0.16,0.06,0.31,0.21,0.35
		c0.02,0.01,0.05,0.01,0.07,0.01c0.13,0,0.25-0.09,0.28-0.22C45.99,27.19,45.74,23.59,45.72,23.32"/>
	<path class="st1" d="M44.06,22.14c-0.5-1.37-1.81-2.29-3.27-2.29c-1.92,0-3.48,1.56-3.48,3.48c0,0.01,0,0.02,0,0.04
		c0,0.02,0.28,2.3,0,4.27c-0.02,0.16,0.09,0.31,0.25,0.33c0.01,0,0.03,0,0.04,0c0.14,0,0.27-0.1,0.29-0.25
		c0.28-1.97,0.03-4.17,0-4.41c0.01-1.59,1.31-2.88,2.9-2.88c1.21,0,2.31,0.77,2.72,1.9c0.05,0.15,0.22,0.23,0.37,0.17
		C44.04,22.45,44.11,22.29,44.06,22.14"/>
	<path class="st1" d="M40.79,21.3c-1.12,0-2.03,0.91-2.03,2.03c0,0.01,0,0.02,0,0.03c0.01,0.05,0.55,4.84-0.82,6.75
		c-0.09,0.13-0.06,0.31,0.07,0.4c0.05,0.04,0.11,0.05,0.17,0.05c0.09,0,0.18-0.04,0.24-0.12c1.47-2.05,0.97-6.76,0.92-7.14
		c0.01-0.79,0.66-1.43,1.45-1.43c0.8,0,1.45,0.65,1.45,1.45v2.03c0,0.16,0.13,0.29,0.29,0.29c0.16,0,0.29-0.13,0.29-0.29v-2.03
		C42.83,22.21,41.91,21.3,40.79,21.3"/>
	<path class="st1" d="M46.9,25.48c-0.16-0.01-0.3,0.1-0.31,0.26l-0.18,2.02c-0.01,0.16,0.1,0.3,0.26,0.31c0.01,0,0.02,0,0.03,0
		c0.15,0,0.28-0.11,0.29-0.26l0.18-2.02C47.18,25.64,47.06,25.5,46.9,25.48"/>
	<path class="st1" d="M37.47,28.6c-0.13-0.09-0.31-0.05-0.4,0.08l-0.58,0.87c-0.09,0.13-0.05,0.31,0.08,0.4
		c0.05,0.03,0.11,0.05,0.16,0.05c0.09,0,0.19-0.05,0.24-0.13L37.55,29C37.64,28.86,37.61,28.68,37.47,28.6"/>
	<path class="st1" d="M44.26,23.27c-0.03-0.16-0.19-0.26-0.34-0.22c-0.16,0.03-0.26,0.19-0.22,0.34c0.01,0.04,0.83,3.99-0.56,6.77
		c-0.07,0.14-0.01,0.32,0.13,0.39c0.04,0.02,0.09,0.03,0.13,0.03c0.11,0,0.21-0.06,0.26-0.16C45.14,27.46,44.3,23.44,44.26,23.27"/>
	<path class="st1" d="M41.07,22.97c-0.04-0.16-0.2-0.25-0.35-0.21c-0.16,0.04-0.25,0.2-0.21,0.35c0.01,0.02,0.55,2.27-0.28,4.77
		c-0.05,0.15,0.03,0.32,0.18,0.37c0.03,0.01,0.06,0.02,0.09,0.02c0.12,0,0.23-0.08,0.28-0.2C41.66,25.4,41.1,23.07,41.07,22.97"/>
	<path class="st1" d="M40.32,28.86c-0.15-0.06-0.32,0.01-0.38,0.16l-0.58,1.45c-0.06,0.15,0.01,0.32,0.16,0.38
		c0.04,0.01,0.07,0.02,0.11,0.02c0.12,0,0.22-0.07,0.27-0.18l0.58-1.45C40.54,29.09,40.47,28.92,40.32,28.86"/>
	<path class="st1" d="M42.53,26.51C42.53,26.51,42.53,26.51,42.53,26.51c-0.16,0-0.29,0.14-0.29,0.3c0,0.02-0.01,1.71-0.85,3.66
		c-0.06,0.15,0.01,0.32,0.15,0.38c0.04,0.02,0.08,0.02,0.11,0.02c0.11,0,0.22-0.07,0.27-0.18c0.88-2.06,0.89-3.81,0.89-3.89
		C42.82,26.64,42.69,26.51,42.53,26.51"/>
</g>
</svg>
