<svg width="31" height="31" viewBox="0 0 31 31" fill="none" xmlns="http://www.w3.org/2000/svg">
<path d="M28.6703 0.110474H1.97031C1.53271 0.110474 1.11302 0.284313 0.803586 0.593748C0.494151 0.903183 0.320312 1.32287 0.320312 1.76047V28.4605C0.320312 28.6772 0.362991 28.8917 0.445911 29.0919C0.528832 29.2921 0.65037 29.474 0.803586 29.6272C0.956803 29.7804 1.1387 29.902 1.33888 29.9849C1.53907 30.0678 1.75363 30.1105 1.97031 30.1105H16.3403V18.4855H12.4403V13.9855H16.3403V10.6105C16.2595 9.81811 16.3531 9.01766 16.6144 8.26528C16.8757 7.5129 17.2985 6.82679 17.853 6.25509C18.4076 5.68339 19.0805 5.23993 19.8246 4.95583C20.5686 4.67173 21.3659 4.55385 22.1603 4.61047C23.3278 4.60329 24.4947 4.66339 25.6553 4.79047V8.84047H23.2703C21.3803 8.84047 21.0203 9.74047 21.0203 11.0455V13.9405H25.5203L24.9353 18.4405H21.0203V30.1105H28.6703C28.887 30.1105 29.1016 30.0678 29.3017 29.9849C29.5019 29.902 29.6838 29.7804 29.837 29.6272C29.9903 29.474 30.1118 29.2921 30.1947 29.0919C30.2776 28.8917 30.3203 28.6772 30.3203 28.4605V1.76047C30.3203 1.54379 30.2776 1.32923 30.1947 1.12905C30.1118 0.928859 29.9903 0.746964 29.837 0.593748C29.6838 0.440531 29.5019 0.318993 29.3017 0.236073C29.1016 0.153152 28.887 0.110474 28.6703 0.110474Z" fill="#212B36"/>
</svg>
