<svg width="31" height="31" viewBox="0 0 31 31" fill="none" xmlns="http://www.w3.org/2000/svg">
<path d="M15.3203 11.3905C14.5846 11.3905 13.8653 11.6086 13.2536 12.0174C12.6418 12.4262 12.165 13.0072 11.8835 13.6869C11.6019 14.3666 11.5283 15.1146 11.6718 15.8362C11.8153 16.5578 12.1696 17.2207 12.6899 17.7409C13.2101 18.2612 13.873 18.6155 14.5946 18.759C15.3162 18.9025 16.0642 18.8289 16.7439 18.5473C17.4236 18.2657 18.0046 17.7889 18.4134 17.1772C18.8221 16.5654 19.0403 15.8462 19.0403 15.1105C19.0403 14.622 18.9441 14.1382 18.7571 13.6869C18.5702 13.2356 18.2962 12.8255 17.9508 12.48C17.6053 12.1346 17.1952 11.8606 16.7439 11.6736C16.2926 11.4867 15.8088 11.3905 15.3203 11.3905ZM30.2153 7.71547C30.2074 6.55711 29.9941 5.40933 29.5853 4.32547C29.2842 3.53236 28.8184 2.81211 28.2185 2.21225C27.6187 1.61239 26.8984 1.14655 26.1053 0.845474C25.0215 0.436669 23.8737 0.223365 22.7153 0.215474C20.7803 0.110474 20.2103 0.110474 15.3203 0.110474C10.4303 0.110474 9.86031 0.110474 7.92531 0.215474C6.76695 0.223365 5.61917 0.436669 4.53531 0.845474C3.7422 1.14655 3.02195 1.61239 2.42209 2.21225C1.82223 2.81211 1.35639 3.53236 1.05531 4.32547C0.646508 5.40933 0.433204 6.55711 0.425312 7.71547C0.320312 9.65047 0.320312 10.2205 0.320312 15.1105C0.320312 20.0005 0.320312 20.5705 0.425312 22.5055C0.441458 23.6679 0.654474 24.8192 1.05531 25.9105C1.35505 26.7 1.82051 27.416 2.42031 28.0105C3.0176 28.6139 3.7394 29.0798 4.53531 29.3755C5.61917 29.7843 6.76695 29.9976 7.92531 30.0055C9.86031 30.1105 10.4303 30.1105 15.3203 30.1105C20.2103 30.1105 20.7803 30.1105 22.7153 30.0055C23.8737 29.9976 25.0215 29.7843 26.1053 29.3755C26.9012 29.0798 27.623 28.6139 28.2203 28.0105C28.8201 27.416 29.2856 26.7 29.5853 25.9105C29.9937 24.8213 30.207 23.6687 30.2153 22.5055C30.3203 20.5705 30.3203 20.0005 30.3203 15.1105C30.3203 10.2205 30.3203 9.65047 30.2153 7.71547ZM26.4053 19.7155C26.3572 20.6411 26.1596 21.5529 25.8203 22.4155C25.5291 23.135 25.0962 23.7886 24.5473 24.3375C23.9985 24.8864 23.3448 25.3193 22.6253 25.6105C21.7546 25.9309 20.8377 26.1082 19.9103 26.1355C18.7253 26.1355 18.4103 26.1355 15.3203 26.1355C12.2303 26.1355 11.9153 26.1355 10.7303 26.1355C9.80291 26.1082 8.88604 25.9309 8.01531 25.6105C7.27147 25.3341 6.59973 24.8931 6.05031 24.3205C5.50681 23.7824 5.08708 23.1323 4.82031 22.4155C4.49865 21.5456 4.32622 20.6277 4.31031 19.7005C4.31031 18.5155 4.31031 18.2005 4.31031 15.1105C4.31031 12.0205 4.31031 11.7055 4.31031 10.5205C4.32622 9.59321 4.49865 8.6753 4.82031 7.80547C5.09673 7.06163 5.53772 6.38989 6.11031 5.84047C6.65081 5.29991 7.30021 4.88061 8.01531 4.61047C8.88604 4.29008 9.80291 4.11279 10.7303 4.08547C11.9153 4.08547 12.2303 4.08547 15.3203 4.08547C18.4103 4.08547 18.7253 4.08547 19.9103 4.08547C20.8377 4.11279 21.7546 4.29008 22.6253 4.61047C23.3692 4.8869 24.0409 5.32789 24.5903 5.90047C25.1338 6.4386 25.5535 7.08867 25.8203 7.80547C26.1407 8.67621 26.318 9.59307 26.3453 10.5205C26.3453 11.7055 26.3453 12.0205 26.3453 15.1105C26.3453 18.2005 26.4503 18.5155 26.4053 19.7005V19.7155ZM24.0053 8.55547C23.8267 8.07095 23.5451 7.63094 23.18 7.26579C22.8148 6.90065 22.3748 6.61907 21.8903 6.44047C21.225 6.20986 20.5243 6.09816 19.8203 6.11047C18.6503 6.11047 18.3203 6.11047 15.3203 6.11047C12.3203 6.11047 11.9903 6.11047 10.8203 6.11047C10.1127 6.11739 9.41192 6.24942 8.75031 6.50047C8.27321 6.67096 7.83785 6.94104 7.47319 7.29278C7.10852 7.64451 6.8229 8.06983 6.63531 8.54047C6.41748 9.20852 6.31106 9.90787 6.32031 10.6105C6.32031 11.7805 6.32031 12.1105 6.32031 15.1105C6.32031 18.1105 6.32031 18.4405 6.32031 19.6105C6.33518 20.3173 6.46697 21.0167 6.71031 21.6805C6.88891 22.165 7.17049 22.605 7.53563 22.9702C7.90078 23.3353 8.34079 23.6169 8.82531 23.7955C9.46531 24.0308 10.1388 24.1625 10.8203 24.1855C11.9903 24.1855 12.3203 24.1855 15.3203 24.1855C18.3203 24.1855 18.6503 24.1855 19.8203 24.1855C20.5279 24.1786 21.2287 24.0465 21.8903 23.7955C22.3748 23.6169 22.8148 23.3353 23.18 22.9702C23.5451 22.605 23.8267 22.165 24.0053 21.6805C24.2564 21.0189 24.3884 20.3181 24.3953 19.6105C24.3953 18.4405 24.3953 18.1105 24.3953 15.1105C24.3953 12.1105 24.3953 11.7805 24.3953 10.6105C24.3957 9.90217 24.2635 9.20006 24.0053 8.54047V8.55547ZM15.3203 20.8405C14.5685 20.8405 13.8242 20.6922 13.1298 20.404C12.4355 20.1159 11.8048 19.6936 11.2739 19.1613C10.743 18.629 10.3224 17.9972 10.036 17.3021C9.74971 16.607 9.60334 15.8622 9.60531 15.1105C9.60532 13.9765 9.94176 12.8681 10.572 11.9255C11.2023 10.9829 12.0981 10.2485 13.146 9.81522C14.1939 9.38198 15.3468 9.26938 16.4587 9.4917C17.5706 9.71401 18.5916 10.2612 19.3923 11.0641C20.1931 11.8669 20.7376 12.8893 20.957 14.0018C21.1764 15.1143 21.0608 16.2669 20.6248 17.3137C20.1888 18.3604 19.4521 19.2543 18.5078 19.8821C17.5635 20.5099 16.4542 20.8434 15.3203 20.8405ZM21.3203 10.5055C20.9887 10.4704 20.6819 10.3138 20.4588 10.0659C20.2358 9.81805 20.1124 9.49641 20.1124 9.16297C20.1124 8.82953 20.2358 8.50789 20.4588 8.26002C20.6819 8.01214 20.9887 7.85557 21.3203 7.82047C21.6519 7.85557 21.9588 8.01214 22.1818 8.26002C22.4048 8.50789 22.5282 8.82953 22.5282 9.16297C22.5282 9.49641 22.4048 9.81805 22.1818 10.0659C21.9588 10.3138 21.6519 10.4704 21.3203 10.5055Z" fill="#212B36"/>
</svg>
