<svg width="31" height="31" viewBox="0 0 31 31" fill="none" xmlns="http://www.w3.org/2000/svg">
<path d="M28.1146 0.110683H2.70497C2.41934 0.106716 2.13573 0.159054 1.87033 0.264707C1.60493 0.37036 1.36294 0.527258 1.15819 0.726443C0.953431 0.925627 0.789918 1.1632 0.676985 1.42558C0.564053 1.68796 0.503913 1.97002 0.5 2.25565V27.9653C0.503913 28.2509 0.564053 28.533 0.676985 28.7954C0.789918 29.0578 0.953431 29.2953 1.15819 29.4945C1.36294 29.6937 1.60493 29.8506 1.87033 29.9562C2.13573 30.0619 2.41934 30.1142 2.70497 30.1103H28.1146C28.4002 30.1142 28.6839 30.0619 28.9493 29.9562C29.2147 29.8506 29.4566 29.6937 29.6614 29.4945C29.8661 29.2953 30.0297 29.0578 30.1426 28.7954C30.2555 28.533 30.3157 28.2509 30.3196 27.9653V2.25565C30.3157 1.97002 30.2555 1.68796 30.1426 1.42558C30.0297 1.1632 29.8661 0.925627 29.6614 0.726443C29.4566 0.527258 29.2147 0.37036 28.9493 0.264707C28.6839 0.159054 28.4002 0.106716 28.1146 0.110683ZM9.54487 25.2203H5.04494V11.7205H9.54487V25.2203ZM7.2949 9.83055C6.67431 9.83055 6.07913 9.58402 5.6403 9.14519C5.20147 8.70636 4.95494 8.11118 4.95494 7.49058C4.95494 6.86998 5.20147 6.2748 5.6403 5.83597C6.07913 5.39714 6.67431 5.15061 7.2949 5.15061C7.62444 5.11324 7.95816 5.14589 8.2742 5.24644C8.59025 5.34698 8.88149 5.51314 9.12886 5.73405C9.37624 5.95495 9.57416 6.22562 9.70968 6.52832C9.84519 6.83102 9.91524 7.15893 9.91524 7.49058C9.91524 7.82223 9.84519 8.15014 9.70968 8.45284C9.57416 8.75554 9.37624 9.02621 9.12886 9.24711C8.88149 9.46802 8.59025 9.63418 8.2742 9.73472C7.95816 9.83527 7.62444 9.86792 7.2949 9.83055ZM25.7746 25.2203H21.2747V17.9754C21.2747 16.1605 20.6297 14.9755 18.9947 14.9755C18.4887 14.9792 17.996 15.1379 17.583 15.4302C17.17 15.7226 16.8565 16.1345 16.6848 16.6105C16.5674 16.963 16.5165 17.3343 16.5348 17.7054V25.2053H12.0348C12.0348 25.2053 12.0348 12.9355 12.0348 11.7055H16.5348V13.6105C16.9436 12.9012 17.5381 12.3168 18.2544 11.9203C18.9707 11.5239 19.7816 11.3303 20.5997 11.3605C23.5997 11.3605 25.7746 13.2955 25.7746 17.4504V25.2203Z" fill="#212B36"/>
</svg>
