<svg width="31" height="31" viewBox="0 0 31 31" fill="none" xmlns="http://www.w3.org/2000/svg">
<mask id="mask0_574_1958" style="mask-type:luminance" maskUnits="userSpaceOnUse" x="0" y="0" width="31" height="31">
<path d="M30.3203 0.110474H0.320312V30.1105H30.3203V0.110474Z" fill="white"/>
</mask>
<g mask="url(#mask0_574_1958)">
<path d="M26.8047 0.110474H3.83594C1.89431 0.110474 0.320312 1.68447 0.320312 3.6261V26.5948C0.320312 28.5365 1.89431 30.1105 3.83594 30.1105H26.8047C28.7463 30.1105 30.3203 28.5365 30.3203 26.5948V3.6261C30.3203 1.68447 28.7463 0.110474 26.8047 0.110474Z" fill="#212B36"/>
<path d="M21.1742 5.96985H24.2754L17.5001 13.7136L25.4708 24.2511H19.2298L14.3417 17.8602L8.74856 24.2511H5.64547L12.8923 15.9683L5.24609 5.96985H11.6454L16.0639 11.8114L21.1742 5.96985ZM20.0858 22.3948H21.8042L10.7117 7.7286H8.86763L20.0858 22.3948Z" fill="white"/>
</g>
</svg>
